# xmcd
#
# Track frame offsets:
#	150
#	14317
#	37247
#	58482
#	84227
#	113647
#	133967
#	145317
#	162677
#	185252
#	212602
#	239852
#
# Disc length: 3391 seconds
#
# Revision: 1
# Processed by: cddbd v1.4PL0 Copyright (c) Steve Scherf et al.
# Submitted via: EasyCDDAExtractor 4.6.9.1
#
DISCID=b80d3d0c
DTITLE=Matt Walker - Soul Witness
DYEAR=2000
DGENRE=Blues
TTITLE0=Deepest Valley
TTITLE1=You Put A Spell On Me
TTITLE2=Black Rose
TTITLE3=Green and Grey
TTITLE4=Dirty Fog
TTITLE5=Victims' Highway
TTITLE6=In The Undertow
TTITLE7=Train Driver
TTITLE8=Evil Feelings
TTITLE9=Room To Move
TTITLE10=Second Hand Luck
TTITLE11=Party Town
EXTD=With Ashley Davies
EXTT0=
EXTT1=
EXTT2=
EXTT3=
EXTT4=
EXTT5=
EXTT6=
EXTT7=
EXTT8=
EXTT9=
EXTT10=
EXTT11=
PLAYORDER=
